<?xml version="1.0" encoding="UTF-8" standalone="no"?>
<!-- Created with Inkscape (http://www.inkscape.org/) -->

<svg
   xmlns:dc="http://purl.org/dc/elements/1.1/"
   xmlns:cc="http://creativecommons.org/ns#"
   xmlns:rdf="http://www.w3.org/1999/02/22-rdf-syntax-ns#"
   xmlns:svg="http://www.w3.org/2000/svg"
   xmlns="http://www.w3.org/2000/svg"
   xmlns:sodipodi="http://sodipodi.sourceforge.net/DTD/sodipodi-0.dtd"
   xmlns:inkscape="http://www.inkscape.org/namespaces/inkscape"
   viewBox="0 0 80.716935 101.07298"
   version="1.1"
   id="svg8"
   sodipodi:docname="hop.svg"
   inkscape:version="0.92.4 (5da689c313, 2019-01-14)"
   width="80.716934"
   height="101.07298">
  <defs
     id="defs2" />
  <sodipodi:namedview
     id="base"
     pagecolor="#ffffff"
     bordercolor="#666666"
     borderopacity="1.0"
     inkscape:pageopacity="0.0"
     inkscape:pageshadow="2"
     inkscape:zoom="5.6"
     inkscape:cx="34.631523"
     inkscape:cy="50.958861"
     inkscape:document-units="mm"
     inkscape:current-layer="g2184"
     showgrid="false"
     inkscape:object-paths="false"
     inkscape:snap-intersection-paths="false"
     inkscape:snap-smooth-nodes="true"
     inkscape:snap-midpoints="false"
     inkscape:snap-bbox="true"
     inkscape:bbox-paths="true"
     inkscape:snap-bbox-edge-midpoints="false"
     inkscape:object-nodes="true"
     inkscape:snap-nodes="true"
     inkscape:window-width="1920"
     inkscape:window-height="1017"
     inkscape:window-x="-8"
     inkscape:window-y="-8"
     inkscape:window-maximized="1"
     fit-margin-top="0"
     fit-margin-left="0"
     fit-margin-right="0"
     fit-margin-bottom="0" />
  <metadata
     id="metadata5">
    <rdf:RDF>
      <cc:Work
         rdf:about="">
        <dc:format>image/svg+xml</dc:format>
        <dc:type
           rdf:resource="http://purl.org/dc/dcmitype/StillImage" />
        <dc:title></dc:title>
      </cc:Work>
    </rdf:RDF>
  </metadata>
  <g
     inkscape:label="Layer 1"
     inkscape:groupmode="layer"
     id="layer1"
     transform="translate(-59.101737,-113.96737)">
    <g
       id="g2184"
       transform="matrix(2.0896136,0,0,2.0881587,-119.94768,82.81783)"
       style="fill:#008000;fill-opacity:1;stroke:#ffffff;stroke-width:0.47872406;stroke-miterlimit:4;stroke-dasharray:none;stroke-opacity:1">
      <g
         id="g2228"
         style="fill:#ffffff;fill-opacity:1;stroke:#000000;stroke-opacity:1">
        <path
           style="fill:#ffffff;fill-opacity:1;stroke:#000000;stroke-width:0.47872406;stroke-linecap:butt;stroke-linejoin:miter;stroke-miterlimit:4;stroke-dasharray:none;stroke-opacity:1"
           d="m 99.239717,44.678325 c -0.40862,1.558069 -0.25292,3.336984 0.2105,5.347424 0.46341,2.010442 1.234513,4.106753 2.056693,6.008307 0.82221,1.901553 1.69547,3.608347 2.36319,4.839754 0.66773,1.231407 1.12989,1.987425 1.12989,1.987425 0,0 0.46218,-0.756018 1.12991,-1.987425 0.66772,-1.231407 1.54098,-2.938201 2.36318,-4.839754 0.82219,-1.901554 1.5933,-3.997865 2.0567,-6.008307 0.46342,-2.01044 0.61913,-3.789355 0.21051,-5.347424 -0.35114,-1.338869 -1.21577,-2.501863 -2.28034,-3.33014 -1.06457,-0.828275 -2.32908,-1.321836 -3.47996,-1.321836 -1.15087,0 -2.41537,0.493561 -3.47994,1.321837 -1.06458,0.828277 -1.929193,1.991272 -2.280333,3.330139 z"
           id="path878-0-9"
           inkscape:connector-curvature="0"
           sodipodi:nodetypes="ccccccccccccc" />
        <path
           style="fill:#ffffff;fill-opacity:1;stroke:#000000;stroke-width:0.47872406;stroke-linecap:butt;stroke-linejoin:miter;stroke-miterlimit:4;stroke-dasharray:none;stroke-opacity:1"
           d="m 94.133822,37.836075 c -0.797956,1.399221 -1.10798,3.157822 -1.180693,5.2197 -0.07272,2.061873 0.129544,4.286337 0.431562,6.335888 0.302037,2.049563 0.703779,3.92422 1.030041,5.286484 0.326297,1.362262 0.577006,2.212143 0.577006,2.212143 0,0 0.642106,-0.610639 1.605785,-1.62726 0.963683,-1.016631 2.248935,-2.439249 3.535287,-4.06321 1.28633,-1.623962 2.57374,-3.449269 3.54169,-5.271269 0.96796,-1.821992 1.57879,-3.499994 1.58734,-5.110726 0.007,-1.384135 -0.52682,-2.731276 -1.34073,-3.806867 -0.81392,-1.075582 -1.90761,-1.879602 -3.01926,-2.177477 -1.111668,-0.297863 -2.460819,-0.1484 -3.703492,0.376126 -1.242687,0.524524 -2.378851,1.42411 -3.064536,2.626468 z"
           id="path878-3"
           inkscape:connector-curvature="0"
           sodipodi:nodetypes="ccccccccccccc" />
        <path
           style="fill:#ffffff;fill-opacity:1;stroke:#000000;stroke-width:0.47872406;stroke-linecap:butt;stroke-linejoin:miter;stroke-miterlimit:4;stroke-dasharray:none;stroke-opacity:1"
           d="m 105.26184,40.817825 c 0.009,1.610738 0.61938,3.28874 1.58734,5.110735 0.96797,1.821998 2.25537,3.647301 3.54169,5.271266 1.28635,1.623955 2.57161,3.046575 3.53529,4.063204 0.96368,1.016627 1.60577,1.627269 1.60577,1.627269 0,0 0.25076,-0.849879 0.57702,-2.212148 0.32626,-1.362266 0.72802,-3.236919 1.03005,-5.286479 0.30202,-2.049559 0.50429,-4.274018 0.43156,-6.335892 -0.0727,-2.061879 -0.38273,-3.82048 -1.18069,-5.2197 -0.6857,-1.202367 -1.82188,-2.10195 -3.06455,-2.626473 -1.24266,-0.524521 -2.59183,-0.673985 -3.70349,-0.376116 -1.11166,0.297868 -2.20533,1.101888 -3.01925,2.177472 -0.81393,1.075587 -1.34809,2.422734 -1.34074,3.806862 z"
           id="path878-7-6"
           inkscape:connector-curvature="0"
           sodipodi:nodetypes="ccccccccccccc" />
        <path
           style="fill:#ffffff;fill-opacity:1;stroke:#000000;stroke-width:0.47872406;stroke-linecap:butt;stroke-linejoin:miter;stroke-miterlimit:4;stroke-dasharray:none;stroke-opacity:1"
           d="m 99.239712,32.603528 c -0.40862,1.558069 -0.25292,3.336984 0.2105,5.347424 0.46341,2.010442 1.234518,4.106753 2.056698,6.008307 0.82221,1.901553 1.69547,3.608347 2.36319,4.839754 0.66773,1.231407 1.12989,1.987425 1.12989,1.987425 0,0 0.46218,-0.756018 1.12991,-1.987425 0.66772,-1.231407 1.54098,-2.938201 2.36318,-4.839754 0.82219,-1.901554 1.5933,-3.997865 2.0567,-6.008307 0.46342,-2.01044 0.61913,-3.789355 0.21051,-5.347424 -0.35114,-1.338869 -1.21577,-2.501863 -2.28034,-3.33014 -1.06457,-0.828275 -2.32908,-1.321836 -3.47996,-1.321836 -1.15087,0 -2.41537,0.493561 -3.47994,1.321837 -1.06458,0.828277 -1.929198,1.991272 -2.280338,3.330139 z"
           id="path878-0"
           inkscape:connector-curvature="0"
           sodipodi:nodetypes="ccccccccccccc" />
        <path
           style="fill:#ffffff;fill-opacity:1;stroke:#000000;stroke-width:0.47872406;stroke-linecap:butt;stroke-linejoin:miter;stroke-miterlimit:4;stroke-dasharray:none;stroke-opacity:1"
           d="m 120.60363,30.889796 c 0.79758,1.399436 1.10798,3.157826 1.1807,5.219695 0.0727,2.061888 -0.12954,4.28634 -0.43154,6.335898 -0.30206,2.049564 -0.7038,3.924222 -1.03006,5.286479 -0.3263,1.362269 -0.57701,2.212154 -0.57701,2.212154 0,0 -0.64211,-0.610637 -1.60579,-1.627275 -0.96369,-1.016626 -2.24894,-2.439249 -3.53528,-4.063201 -1.28633,-1.623971 -2.57374,-3.449263 -3.54168,-5.271275 -0.96799,-1.821991 -1.57881,-3.499991 -1.58735,-5.110731 -0.007,-1.384125 0.52681,-2.731276 1.34072,-3.806863 0.81393,-1.075585 1.90762,-1.879608 3.01928,-2.177483 1.11166,-0.297861 2.4608,-0.148384 3.70348,0.376131 1.24268,0.524521 2.37885,1.42411 3.06452,2.626468 z"
           id="path878-9-9-0-8-3"
           inkscape:connector-curvature="0"
           sodipodi:nodetypes="ccccccccccccc" />
        <path
           style="fill:#ffffff;fill-opacity:1;stroke:#000000;stroke-width:0.47872406;stroke-linecap:butt;stroke-linejoin:miter;stroke-miterlimit:4;stroke-dasharray:none;stroke-opacity:1"
           d="m 107.0582,27.931738 c 0.81316,1.390439 2.18077,2.538442 3.93005,3.632355 1.74928,1.093912 3.77685,2.030971 5.70282,2.794206 1.92599,0.763211 3.75037,1.352606 5.09326,1.751192 1.34288,0.398585 2.20427,0.606372 2.20427,0.606372 0,0 -0.20778,-0.861397 -0.60636,-2.204287 -0.39859,-1.342887 -0.98799,-3.167259 -1.7512,-5.093245 -0.76322,-1.92598 -1.70028,-3.953553 -2.79421,-5.702823 -1.09389,-1.749289 -2.24169,-3.117268 -3.63234,-3.930052 -1.19502,-0.698431 -2.62877,-0.909403 -3.96722,-0.742318 -1.33843,0.167081 -2.58158,0.712227 -3.39537,1.526019 -0.8138,0.813791 -1.35893,2.056928 -1.52601,3.395371 -0.1671,1.33845 0.0439,2.772194 0.74231,3.96721 z"
           id="path878-3-5-4-9"
           inkscape:connector-curvature="0"
           sodipodi:nodetypes="ccccccccccccc" />
        <path
           style="fill:#ffffff;fill-opacity:1;stroke:#000000;stroke-width:0.47872406;stroke-linecap:butt;stroke-linejoin:miter;stroke-miterlimit:4;stroke-dasharray:none;stroke-opacity:1"
           d="m 100.52438,33.871543 c -0.009,1.610737 -0.61938,3.288746 -1.58733,5.110738 -0.96798,1.822 -2.25537,3.647301 -3.54169,5.271266 -1.28636,1.623953 -2.57162,3.046578 -3.53529,4.063205 -0.9637,1.016629 -1.60578,1.627273 -1.60578,1.627273 0,0 -0.25076,-0.849877 -0.57702,-2.212155 -0.32626,-1.362268 -0.72801,-3.236923 -1.03004,-5.286478 -0.30201,-2.049561 -0.50429,-4.274014 -0.43155,-6.335893 0.0727,-2.061878 0.38272,-3.820479 1.18068,-5.219701 0.68569,-1.202361 1.82187,-2.101947 3.06454,-2.626472 1.24267,-0.524517 2.59184,-0.673987 3.70351,-0.376121 1.11165,0.297873 2.20531,1.101897 3.01924,2.177479 0.81393,1.075589 1.34808,2.422739 1.34073,3.806859 z"
           id="path878-9-9-0-8-8"
           inkscape:connector-curvature="0"
           sodipodi:nodetypes="ccccccccccccc" />
        <path
           style="fill:#ffffff;fill-opacity:1;stroke:#000000;stroke-width:0.47872406;stroke-linecap:butt;stroke-linejoin:miter;stroke-miterlimit:4;stroke-dasharray:none;stroke-opacity:1"
           d="m 94.79552,19.785463 c -1.39065,0.812784 -2.53845,2.180761 -3.63235,3.930044 -1.0939,1.749288 -2.03098,3.776851 -2.79421,5.702824 -0.76321,1.925993 -1.35261,3.750366 -1.75119,5.093253 -0.39859,1.342889 -0.60637,2.204271 -0.60637,2.204271 0,0 0.8614,-0.207772 2.20428,-0.606356 1.34289,-0.398587 3.16727,-0.987982 5.09325,-1.751201 1.92597,-0.763227 3.95355,-1.700286 5.70282,-2.794205 1.74928,-1.093913 3.11727,-2.241689 3.93005,-3.632348 0.69813,-1.195193 0.9094,-2.628767 0.74232,-3.967211 -0.16708,-1.338443 -0.71223,-2.581587 -1.52602,-3.395379 -0.81379,-0.813791 -2.05693,-1.358929 -3.39537,-1.526014 -1.33845,-0.167088 -2.77219,0.04389 -3.96721,0.742322 z"
           id="path878-3-5-4"
           inkscape:connector-curvature="0"
           sodipodi:nodetypes="ccccccccccccc" />
        <path
           style="fill:#ffffff;fill-opacity:1;stroke:#000000;stroke-width:0.47872406;stroke-linecap:butt;stroke-linejoin:miter;stroke-miterlimit:4;stroke-dasharray:none;stroke-opacity:1"
           d="m 106.71483,26.480344 c -0.40862,1.558068 -0.25292,3.336984 0.2105,5.347424 0.46341,2.010442 1.23452,4.106753 2.0567,6.008307 0.82221,1.901553 1.69547,3.608347 2.36319,4.839754 0.66773,1.231407 1.12989,1.987425 1.12989,1.987425 0,0 0.46218,-0.756018 1.12991,-1.987425 0.66772,-1.231407 1.54098,-2.938201 2.36318,-4.839754 0.82219,-1.901554 1.5933,-3.997865 2.0567,-6.008307 0.46342,-2.01044 0.61913,-3.789356 0.21051,-5.347424 -0.35114,-1.33887 -1.21577,-2.501863 -2.28034,-3.33014 -1.06457,-0.828276 -2.32908,-1.321837 -3.47996,-1.321837 -1.15087,0 -2.41537,0.493561 -3.47994,1.321837 -1.06458,0.828278 -1.9292,1.991273 -2.28034,3.33014 z"
           id="path878-4-4"
           inkscape:connector-curvature="0"
           sodipodi:nodetypes="ccccccccccccc" />
        <path
           style="fill:#ffffff;fill-opacity:1;stroke:#000000;stroke-width:0.47872406;stroke-linecap:butt;stroke-linejoin:miter;stroke-miterlimit:4;stroke-dasharray:none;stroke-opacity:1"
           d="m 91.866622,26.480344 c -0.40862,1.558068 -0.25292,3.336984 0.2105,5.347424 0.46341,2.010442 1.23452,4.106753 2.0567,6.008307 0.82221,1.901553 1.69547,3.608347 2.36319,4.839754 0.66773,1.231407 1.12989,1.987425 1.12989,1.987425 0,0 0.46218,-0.756018 1.12991,-1.987425 0.66772,-1.231407 1.540978,-2.938201 2.363178,-4.839754 0.82219,-1.901554 1.5933,-3.997865 2.0567,-6.008307 0.46342,-2.01044 0.61913,-3.789356 0.21051,-5.347424 -0.35114,-1.33887 -1.21577,-2.501863 -2.28034,-3.33014 -1.06457,-0.828276 -2.329078,-1.321837 -3.479958,-1.321837 -1.15087,0 -2.41537,0.493561 -3.47994,1.321837 -1.06458,0.828278 -1.9292,1.991273 -2.28034,3.33014 z"
           id="path878-4-1"
           inkscape:connector-curvature="0"
           sodipodi:nodetypes="ccccccccccccc" />
        <path
           style="fill:#ffffff;fill-opacity:1;stroke:#000000;stroke-width:0.47872406;stroke-linecap:butt;stroke-linejoin:miter;stroke-miterlimit:4;stroke-dasharray:none;stroke-opacity:1"
           d="m 104.70986,25.330624 c 1.14501,1.13291 2.76346,1.887526 4.73626,2.491412 1.9728,0.603896 4.17381,0.98425 6.23169,1.223001 2.0579,0.23872 3.97266,0.335851 5.37295,0.373294 1.4003,0.03743 2.28611,0.0152 2.28611,0.0152 0,0 -0.42364,-0.77827 -1.15621,-1.972245 -0.73258,-1.193965 -1.77408,-2.803628 -3.00976,-4.466451 -1.23571,-1.662814 -2.6656,-3.378772 -4.175,-4.785308 -1.50938,-1.406552 -2.97212,-2.430858 -4.52575,-2.856017 -1.33506,-0.36534 -2.77456,-0.198045 -4.02416,0.309764 -1.24959,0.507806 -2.30929,1.356123 -2.88473,2.352816 -0.57543,0.996681 -0.78024,2.338549 -0.59522,3.674635 0.18502,1.336089 0.7599,2.666368 1.74382,3.639899 z"
           id="path878-9-9-0-2"
           inkscape:connector-curvature="0"
           sodipodi:nodetypes="ccccccccccccc" />
        <path
           style="fill:#ffffff;fill-opacity:1;stroke:#000000;stroke-width:0.47872406;stroke-linecap:butt;stroke-linejoin:miter;stroke-miterlimit:4;stroke-dasharray:none;stroke-opacity:1"
           d="m 104.70986,25.330624 c -1.14501,1.13291 -2.76346,1.887527 -4.73626,2.491412 -1.9728,0.603896 -4.17381,0.984251 -6.23169,1.223001 -2.0579,0.238721 -3.97266,0.335852 -5.37295,0.373294 -1.4003,0.03743 -2.28611,0.0152 -2.28611,0.0152 0,0 0.42364,-0.778271 1.15621,-1.972246 0.73258,-1.193964 1.77408,-2.803628 3.00976,-4.466451 1.23571,-1.662814 2.6656,-3.378772 4.175,-4.785308 1.50938,-1.406552 2.97212,-2.430858 4.52575,-2.856017 1.33506,-0.36534 2.77456,-0.198045 4.02416,0.309764 1.24959,0.507806 2.30929,1.356123 2.88473,2.352816 0.57543,0.996681 0.78024,2.338549 0.59522,3.674635 -0.18502,1.33609 -0.7599,2.666368 -1.74382,3.6399 z"
           id="path878-9-9-0-2-2"
           inkscape:connector-curvature="0"
           sodipodi:nodetypes="ccccccccccccc" />
        <path
           style="fill:#ffffff;fill-opacity:1;stroke:#000000;stroke-width:0.47872406;stroke-linecap:butt;stroke-linejoin:miter;stroke-miterlimit:4;stroke-dasharray:none;stroke-opacity:1"
           d="m 99.29072,20.815473 c -0.40862,1.558069 -0.25292,3.336984 0.2105,5.347424 0.46341,2.010442 1.23452,4.106753 2.0567,6.008307 0.82221,1.901553 1.69547,3.608347 2.36319,4.839754 0.66773,1.231407 1.12989,1.987425 1.12989,1.987425 0,0 0.46218,-0.756018 1.12991,-1.987425 0.66772,-1.231407 1.54098,-2.938201 2.36318,-4.839754 0.82219,-1.901554 1.5933,-3.997865 2.0567,-6.008307 0.46342,-2.01044 0.61913,-3.789355 0.21051,-5.347424 -0.35114,-1.338869 -1.21577,-2.501863 -2.28034,-3.33014 -1.06457,-0.828275 -2.32908,-1.321836 -3.47996,-1.321836 -1.15087,0 -2.41537,0.493561 -3.47994,1.321837 -1.06458,0.828277 -1.9292,1.991272 -2.28034,3.330139 z"
           id="path878"
           inkscape:connector-curvature="0"
           sodipodi:nodetypes="ccccccccccccc" />
      </g>
    </g>
  </g>
</svg>
